<?xml version="1.0" encoding="UTF-8"?>
<!DOCTYPE svg PUBLIC "-//W3C//DTD SVG 1.1//EN" "http://www.w3.org/Graphics/SVG/1.1/DTD/svg11.dtd">
<svg version="1.1" id="Layer_1" xmlns="http://www.w3.org/2000/svg" x="0" y="0" viewBox="0 0 256 256" style="enable-background:new 0 0 256 256" xml:space="preserve"><style>.st0{fill:#4671c6}.st1{fill:#f9cfcf}.st2{fill:#f9a7a7}.st3{fill:#a4c9ff}.st4{fill:#3762cc}</style><path class="st0" d="M240 174.38H16a8 8 0 0 1-8-8V25.713a8 8 0 0 1 8-8h224a8 8 0 0 1 8 8V166.38a8 8 0 0 1-8 8z"/><path d="M18 160.38V31.713a4 4 0 0 1 4-4h212a4 4 0 0 1 4 4V160.38a4 4 0 0 1-4 4H22a4 4 0 0 1-4-4z" style="fill:#6bdddd"/><path class="st3" d="m73 174.38-12.486 24.079c-.69 1.331.276 2.921 1.776 2.921h9.812c.571 0 1.115-.244 1.495-.671L97 174.38H73zM183 174.38l12.486 24.079c.69 1.331-.276 2.921-1.776 2.921h-9.812a2.001 2.001 0 0 1-1.495-.671L159 174.38h24z"/><path class="st4" d="M240 176.38H16c-5.514 0-10-4.486-10-10V25.713c0-5.514 4.486-10 10-10h224c5.514 0 10 4.486 10 10V166.38c0 5.514-4.486 10-10 10zM16 19.713c-3.309 0-6 2.691-6 6V166.38c0 3.309 2.691 6 6 6h224c3.309 0 6-2.691 6-6V25.713c0-3.309-2.691-6-6-6H16z"/><path class="st4" d="M234 166.38H22c-3.309 0-6-2.691-6-6V31.713c0-3.309 2.691-6 6-6h212c3.309 0 6 2.691 6 6V160.38c0 3.308-2.691 6-6 6zM22 29.713c-1.103 0-2 .897-2 2V160.38c0 1.103.897 2 2 2h212c1.103 0 2-.897 2-2V31.713c0-1.103-.897-2-2-2H22zM72.102 203.38H62.29a3.97 3.97 0 0 1-3.418-1.923 3.973 3.973 0 0 1-.133-3.919l12.485-24.079a2 2 0 0 1 1.775-1.079h24a1.999 1.999 0 0 1 1.495 3.329l-23.403 26.329a4.005 4.005 0 0 1-2.989 1.342zm2.114-27-11.926 23h9.812l20.444-23h-18.33zM193.71 203.38h-9.812a4.006 4.006 0 0 1-2.989-1.341l-23.404-26.33A2 2 0 0 1 159 172.38h24c.747 0 1.432.416 1.775 1.079l12.485 24.079a3.97 3.97 0 0 1-.133 3.919 3.969 3.969 0 0 1-3.417 1.923zm-30.256-27 20.444 23h9.812l-11.926-23h-18.33z"/><path d="M201.991 112.165v-30.47c0-4.46-6.736-4.467-6.736 0v30.47a5.75 5.75 0 0 0-2.407 4.679v9.453c0 1.443.963 1.082 10.468 1.082.598 0 1.082-.485 1.082-1.082v-9.453a5.753 5.753 0 0 0-2.407-4.679z" style="fill:#ffea94"/><path class="st0" d="M123.537 50.168 53.329 78.332c-3.36 1.348-3.297 6.222.096 7.48l70.308 26.054a7.848 7.848 0 0 0 5.458 0l70.329-26.061c3.386-1.255 3.448-6.119.096-7.464l-70.229-28.172a7.843 7.843 0 0 0-5.85-.001z"/><path class="st4" d="M126.462 114.354a9.86 9.86 0 0 1-3.424-.614L52.73 87.687c-2.326-.861-3.852-3.041-3.885-5.552-.034-2.513 1.434-4.734 3.738-5.659l70.209-28.164a9.815 9.815 0 0 1 7.339 0l70.229 28.173c2.301.924 3.767 3.142 3.733 5.65-.033 2.508-1.557 4.685-3.88 5.545l-70.328 26.061a9.869 9.869 0 0 1-3.423.613zm-2.181-62.33L54.073 80.188c-1.157.464-1.232 1.566-1.229 1.893.005.326.109 1.423 1.275 1.854l70.309 26.055a5.88 5.88 0 0 0 4.068 0l70.327-26.061c1.162-.431 1.267-1.523 1.271-1.849.004-.325-.071-1.422-1.224-1.884l-70.229-28.173a5.834 5.834 0 0 0-4.36.001z"/><path class="st0" d="M169.56 88.186c-10.398-1.881-49.34-7.858-88.19-.017-1.542.311-2.542 1.089-2.542 1.939v19.427c0 .882 1.065 1.667 2.688 1.961 10.398 1.881 49.34 7.858 88.19.017 1.542-.311 2.542-1.089 2.542-1.939V90.147c0-.882-1.066-1.667-2.688-1.961z"/><path class="st4" d="M127.472 117.455c-21.781.001-39.46-2.75-46.313-3.99-2.631-.475-4.332-2.017-4.332-3.929V90.149c0-1.902 1.628-3.433 4.148-3.94 38.988-7.869 77.934-1.982 88.941.01h-.001c2.632.475 4.332 2.018 4.332 3.929v19.387c0 1.902-1.628 3.433-4.146 3.94-14.715 2.969-29.427 3.98-42.629 3.98zm-46.645-8.276c.177.105.515.255 1.044.351 10.831 1.96 49.14 7.757 87.439.023.471-.095.774-.233.938-.332V90.505c-.176-.105-.514-.255-1.043-.351h-.001c-10.83-1.959-49.143-7.755-87.438-.023-.471.095-.775.233-.938.332v18.716zm89.559-18.574h.01-.01z"/><path class="st3" d="M231.409 238.287h-30.055a6.598 6.598 0 0 1-6.598-6.598v-90.605a6.598 6.598 0 0 1 6.598-6.598h30.055a6.598 6.598 0 0 1 6.598 6.598v90.605a6.598 6.598 0 0 1-6.598 6.598z"/><path class="st1" d="M211.975 142.942c5.374 0 6.272-.267 6.272.905 0 2.149.254 3.42-.905 3.42-5.374 0-6.272.267-6.272-.905v-2.515a.904.904 0 0 1 .905-.905z"/><circle cx="216.381" cy="171.553" r="16.364" style="fill:#e0ebfc"/><path class="st2" d="m215.091 158.766-2.993 4.584c-.669 1.025.066 2.383 1.29 2.383H219.373c1.224 0 1.959-1.358 1.29-2.383l-2.992-4.584a1.54 1.54 0 0 0-2.58 0zM217.672 184.339l2.993-4.584c.669-1.025-.066-2.383-1.29-2.383H213.39c-1.224 0-1.959 1.358-1.29 2.383l2.992 4.584a1.54 1.54 0 0 0 2.58 0zM229.168 170.262l-4.584-2.993c-1.025-.669-2.383.066-2.383 1.29V174.544c0 1.224 1.358 1.959 2.383 1.29l4.584-2.992a1.54 1.54 0 0 0 0-2.58zM203.595 172.843l4.584 2.993c1.025.669 2.383-.066 2.383-1.29V168.561c0-1.224-1.358-1.959-2.383-1.29l-4.584 2.992a1.54 1.54 0 0 0 0 2.58zM219.226 175.76h-5.689c-.753 0-1.363-.61-1.363-1.363v-5.689c0-.753.61-1.363 1.363-1.363h5.689c.753 0 1.363.61 1.363 1.363v5.689c0 .753-.61 1.363-1.363 1.363z"/><path class="st0" d="M206.654 203.747h-6.426a1.084 1.084 0 0 1-1.084-1.084c0-5.961-.322-7.118 1.084-7.118h6.426c.599 0 1.084.485 1.084 1.084v6.034c0 .599-.485 1.084-1.084 1.084zM219.558 203.747c-6.456 0-7.51.319-7.51-1.084 0-5.961-.322-7.118 1.084-7.118 6.456 0 7.51-.319 7.51 1.084v6.034c0 .599-.485 1.084-1.084 1.084zM233.326 203.747c-6.456 0-7.51.319-7.51-1.084 0-5.961-.322-7.118 1.084-7.118h6.426c.599 0 1.084.485 1.084 1.084v6.034c0 .599-.486 1.084-1.084 1.084zM206.654 217.418h-6.426a1.084 1.084 0 0 1-1.084-1.084V210.3c0-.599.485-1.084 1.084-1.084h6.426c.599 0 1.084.485 1.084 1.084v6.034c0 .598-.485 1.084-1.084 1.084zM219.558 217.418c-6.456 0-7.51.319-7.51-1.084V210.3c0-.599.485-1.084 1.084-1.084h6.426c.599 0 1.084.485 1.084 1.084 0 5.96.322 7.118-1.084 7.118zM233.326 217.418c-6.456 0-7.51.319-7.51-1.084 0-5.961-.322-7.118 1.084-7.118 6.456 0 7.51-.319 7.51 1.084v6.034c0 .598-.486 1.084-1.084 1.084zM206.654 231.088h-6.426a1.084 1.084 0 0 1-1.084-1.084v-6.034c0-.599.485-1.084 1.084-1.084 6.456 0 7.51-.319 7.51 1.084v6.034c0 .599-.485 1.084-1.084 1.084zM219.558 231.088c-6.456 0-7.51.319-7.51-1.084 0-5.961-.322-7.118 1.084-7.118 6.456 0 7.51-.319 7.51 1.084v6.034c0 .599-.485 1.084-1.084 1.084zM233.326 231.088H226.9a1.084 1.084 0 0 1-1.084-1.084c0-5.961-.322-7.118 1.084-7.118 6.456 0 7.51-.319 7.51 1.084 0 5.96.322 7.118-1.084 7.118z"/><path class="st1" d="M201.152 142.942c5.374 0 6.272-.267 6.272.905 0 2.149.254 3.42-.905 3.42-5.374 0-6.272.267-6.272-.905v-2.515a.904.904 0 0 1 .905-.905z"/><path class="st0" d="M226.969 140.972h.051a4.302 4.302 0 0 1 4.302 4.302v.051a4.302 4.302 0 0 1-4.302 4.302h-.051c-5.731 0-5.731-8.655 0-8.655z"/><path class="st4" d="M231.409 240.287h-30.055c-4.741 0-8.599-3.857-8.599-8.599v-90.605c0-4.741 3.857-8.598 8.599-8.598h30.055c4.741 0 8.598 3.856 8.598 8.598v90.605c0 4.742-3.857 8.599-8.598 8.599zm-30.055-103.802a4.604 4.604 0 0 0-4.599 4.598v90.605a4.604 4.604 0 0 0 4.599 4.599h30.055a4.604 4.604 0 0 0 4.598-4.599v-90.605a4.604 4.604 0 0 0-4.598-4.598h-30.055z"/></svg>